HIERARCHY
ROOT Hips
{
  OFFSET 155.048 98.1286 3.93448
  CHANNELS 6 Xposition Yposition Zposition Zrotation Xrotation Yrotation
  JOINT RightUpLeg
  {
    OFFSET -8.9458 -8.66707 0.101652
    CHANNELS 3 Zrotation Xrotation Yrotation
    JOINT RightLeg
    {
      OFFSET 0 -44.4227 1.3727
      CHANNELS 3 Zrotation Xrotation Yrotation
      JOINT RightFoot
      {
        OFFSET 0.253549 -42.0924 -1.46059
        CHANNELS 3 Zrotation Xrotation Yrotation
        JOINT RightToes
        {
          OFFSET 0.04 -4.41509 8.4991
          CHANNELS 3 Zrotation Xrotation Yrotation
          End Site
          {
            OFFSET -0.08 -0.137448 9.77979
          }
        }
      }
    }
  }
  JOINT Spine
  {
    OFFSET 0 11.8905 0
    CHANNELS 3 Zrotation Xrotation Yrotation
    JOINT Spine1
    {
      OFFSET 0 25.6574 0.127663
      CHANNELS 3 Zrotation Xrotation Yrotation
      JOINT Head
      {
        OFFSET 0 8.73416 0.011341
        CHANNELS 3 Zrotation Xrotation Yrotation
        End Site
        {
          OFFSET -0.29 12.7742 2.51395
        }
      }
      JOINT LeftShoulder1
      {
        OFFSET 8.99 -0.362252 -0.22
        CHANNELS 3 Zrotation Xrotation Yrotation
        JOINT LeftArm
        {
          OFFSET 10.2827 -0.00337999 0.322123
          CHANNELS 3 Zrotation Xrotation Yrotation
          JOINT LeftForeArm
          {
            OFFSET 26.2597 0.099144 -1.42434
            CHANNELS 3 Zrotation Xrotation Yrotation
            JOINT LeftHand
            {
              OFFSET 22.0902 0.085362 1.02216
              CHANNELS 3 Zrotation Xrotation Yrotation
              End Site
              {
                OFFSET 13.419 -0.6 1.50291
              }
            }
          }
        }
      }
      JOINT RightShoulder
      {
        OFFSET -8.99 -0.362252 -0.22
        CHANNELS 3 Zrotation Xrotation Yrotation
        JOINT RightArm
        {
          OFFSET -10.2827 -0.00338 0.322123
          CHANNELS 3 Zrotation Xrotation Yrotation
          JOINT RightForeArm
          {
            OFFSET -26.364 0.099144 -1.42434
            CHANNELS 3 Zrotation Xrotation Yrotation
            JOINT RightHand
            {
              OFFSET -22.0324 0.085362 1.02216
              CHANNELS 3 Zrotation Xrotation Yrotation
              End Site
              {
                OFFSET -13.3284 -0.6 1.50291
              }
            }
          }
        }
      }
    }
  }
  JOINT LeftUpLeg
  {
    OFFSET 8.9458 -8.66707 0.101652
    CHANNELS 3 Zrotation Xrotation Yrotation
    JOINT LeftLeg
    {
      OFFSET 0 -44.4227 1.3727
      CHANNELS 3 Zrotation Xrotation Yrotation
      JOINT LeftFoot
      {
        OFFSET -0.253549 -42.0924 -1.46059
        CHANNELS 3 Zrotation Xrotation Yrotation
        JOINT LeftToes
        {
          OFFSET -0.04 -4.41509 8.4991
          CHANNELS 3 Zrotation Xrotation Yrotation
          End Site
          {
            OFFSET 0.08 -0.047448 9.77979
          }
        }
      }
    }
  }
}
MOTION
Frames:	10
Frame Time:	0.0333333
-15.1978 92.9723 -6.68731 10.0205 -0.816976 -85.987 3.31154 -22.4571 9.66796 -1.51765 48.7153 -19.0618 5.84381 -30.3873 0.896413 0.0462048 0.000530889 0.662642 10.488 7.80158 -1.56775 -5.86254 3.60359 0.123999 -1.98266 -19.0701 -1.8232 -30.4639 6.35972 -13.7955 -42.2917 -12.0075 10.3728 -5.87093 18.5551 -38.8306 20.4546 9.13824 1.00429 42.617 10.222 16.7267 28.4817 -36.5529 2.72826 6.44135 14.7097 26.11 -10.447 9.19214 3.05634 1.25066 -28.9882 2.13211 1.48749 64.924 8.49529 -14.2616 -14.0149 -0.745564 -1.30833e-009 8.75251e-006 -1.46738e-008 
-19.89 95.836 -6.87564 8.06398 -2.49148 -83.092 0.0277033 -13.8141 5.41921 -1.22125 41.5858 -16.9314 7.88008 -26.4433 1.02338 0.0462048 0.000530889 0.662642 8.16093 2.78479 -0.759076 -5.88622 5.79111 0.734224 -1.42019 -12.0861 -4.72854 -28.7313 5.86672 -13.2417 -41.0706 -11.1901 13.4656 -2.41415 22.5503 -51.8448 22.1606 8.4793 -2.21477 41.3427 9.5748 15.9723 29.6694 -35.6486 -0.632039 5.32597 17.4562 29.6271 -11.9213 8.88041 5.23742 0.628414 -26.7433 3.21971 1.48711 65.1299 8.91602 -13.8358 1.45759 1.05367 -1.30833e-009 8.75251e-006 -1.46738e-008 
-24.6407 99.3344 -6.85854 5.41901 -3.52563 -80.4533 -1.63765 -5.90315 2.16121 -1.04447 36.1217 -15.1804 11.482 -15.7499 0.577605 0.0462048 0.000530889 0.662642 6.60042 -0.851145 -0.388171 -6.16923 7.59772 1.19795 -0.660375 -4.95742 -6.93702 -27.2214 5.45704 -12.7666 -40.3462 -10.0365 15.5351 -1.0689 23.401 -61.4855 22.9049 8.08437 -3.9991 40.4687 9.01575 15.1835 30.6256 -34.0721 -3.28974 4.4276 19.1783 32.2064 -12.0449 8.80282 5.91067 0.469274 -23.0459 4.04868 1.51921 62.4039 11.6869 -12.3567 13.9417 2.23198 -1.30833e-009 8.75251e-006 -1.46738e-008 
-28.9009 102.852 -6.57014 3.03031 -3.52247 -79.5729 -2.08794 -2.77791 0.0238047 -0.958785 36.2134 -13.4366 12.9213 0.525971 -0.994246 0.0462048 0.000530889 0.662642 7.24069 -2.41657 -0.00891958 -7.84968 8.30706 1.85893 -0.168305 -0.098326 -7.9347 -26.744 5.31647 -12.5712 -39.2884 -10.4222 17.5951 -3.71092 22.527 -67.6519 22.9077 8.04556 -4.19345 39.8822 8.57154 14.4874 31.4519 -33.3528 -4.59464 3.78578 20.3301 34.9011 -9.43097 9.1082 5.22045 0.834059 -19.3272 4.56952 1.52367 57.923 13.8715 -10.6711 15.3163 2.03997 -1.30833e-009 8.75251e-006 -1.46738e-008 
-32.4124 105.527 -6.23431 1.70893 -3.30964 -80.1661 -2.61663 -5.24024 -0.695422 -0.920421 41.6787 -10.8802 11.3301 13.3558 -2.11168 0.0462048 0.000530889 0.662642 8.23775 -1.70487 0.526463 -10.0666 7.54495 2.5313 0.0741754 1.40466 -8.04997 -26.9684 5.37964 -12.6541 -38.4648 -12.0121 19.4337 -7.9791 21.6432 -71.0806 22.865 8.12631 -3.79395 39.4709 8.29715 14.0666 31.7926 -33.8429 -5.27993 3.11767 21.3941 38.6114 -6.01028 9.45977 4.47832 0.490231 -17.5869 3.93159 1.33955 53.4017 13.705 -10.3242 6.57809 1.20817 -1.30833e-009 8.75251e-006 -1.46738e-008 
-35.3735 106.928 -6.02894 1.03265 -3.47245 -80.7937 -3.30013 -10.2557 -0.640812 -1.02297 48.3449 -9.34696 9.18611 15.3022 -1.87062 0.0462048 0.000530889 0.662642 7.45592 1.14715 0.715678 -10.3431 5.82359 2.61394 0.357435 0.34268 -7.80604 -26.9063 5.40094 -12.7464 -38.9773 -13.8289 20.3457 -10.091 21.4859 -73.0206 23.0203 8.17283 -3.48792 39.1192 8.22708 14.0559 31.5563 -34.5378 -5.46709 2.55345 22.1491 42.6264 -4.60208 9.5753 4.56374 -1.01659 -17.5876 1.40596 1.17341 48.6922 13.7425 -11.4529 -4.87199 0.297806 -1.30833e-009 8.75251e-006 -1.46738e-008 
-37.9851 107.477 -5.91647 0.0821648 -3.79986 -80.7172 -4.05675 -14.6816 -0.884043 -1.08235 50.8777 -10.3852 8.2229 10.0575 -1.31614 0.0462048 0.000530889 0.662642 5.53136 5.68606 0.360228 -8.3279 3.84921 2.00218 0.717522 -1.79292 -7.38095 -26.3839 5.2858 -12.6474 -40.4979 -15.344 20.261 -10.0492 21.6801 -74.1948 22.6404 8.2679 -3.14463 38.6469 8.25294 14.3035 31.2808 -34.9449 -4.52951 2.3734 22.4127 45.7499 -5.57113 9.47023 5.10206 -3.00175 -17.7466 -2.44532 1.14981 42.8842 15.9582 -11.5931 -13.0284 -0.480731 -1.30833e-009 8.75251e-006 -1.46738e-008 
-40.2343 107.241 -5.81191 -0.954621 -3.8687 -80.3212 -4.73297 -18.187 -0.975159 -1.10506 47.5787 -12.221 8.48479 4.57084 -0.997273 0.0462048 0.000530889 0.662642 4.51047 11.0362 -0.168323 -6.8571 1.86823 1.36836 1.08937 -4.15795 -6.9298 -26.0272 5.19736 -12.5484 -41.4879 -16.3436 19.3964 -10.3092 21.6487 -74.2467 21.2292 8.4632 -2.65098 38.3191 8.29769 14.537 31.0911 -35.6387 -2.70601 2.48194 22.3999 47.9022 -7.30895 9.29969 5.3496 -4.48076 -18.2506 -5.88603 1.18091 36.7691 18.3907 -10.4404 -18.3018 -0.899857 -1.30833e-009 8.75251e-006 -1.46738e-008 
-42.4743 106.15 -5.57989 -1.28241 -3.03868 -80.182 -4.36226 -21.6855 0.648391 -1.04211 40.6227 -13.4723 7.41095 0.444854 -0.653456 0.0462048 0.000530889 0.662642 6.27706 15.6128 -0.710677 -8.04604 0.0444588 1.44808 1.50082 -6.57002 -6.77432 -26.1245 5.33371 -12.9159 -40.97 -16.5497 18.0202 -11.5794 21.202 -72.8347 19.6885 8.6386 -2.25542 38.747 8.46628 14.7274 30.2934 -37.2275 -1.2828 2.55119 22.4055 49.5918 -8.62864 9.17806 5.32383 -4.66039 -19.8687 -7.84248 1.13563 30.6852 18.6022 -10.2113 -23.2665 -1.31939 -1.30833e-009 8.75251e-006 -1.46738e-008 
-45.1308 103.922 -5.28821 -0.901789 -1.82041 -80.7459 -3.02175 -25.4119 5.32332 -0.993884 33.7701 -14.7766 5.09654 -5.35412 -0.260579 0.0462048 0.000530889 0.662642 9.38535 18.4179 -1.04814 -10.9851 -0.965041 2.31915 1.9618 -8.82485 -6.84218 -26.358 5.69041 -13.8805 -39.3606 -16.1195 16.7783 -12.8179 20.5546 -70.7478 19.0751 8.73881 -1.88331 39.7261 8.81136 15.0612 28.8921 -39.3168 -0.557734 2.658 22.3558 50.384 -9.42891 9.10495 5.30595 -4.18456 -22.3456 -8.57481 1.40943 25.388 17.077 -10.9339 -27.0744 -1.77854 -1.30833e-009 8.75251e-006 -1.46738e-008 
